<svg width="150" height="44" viewBox="0 0 150 44" fill="none" xmlns="http://www.w3.org/2000/svg">
<g clip-path="url(#clip0_2863_191)">
<path d="M57.3303 32.4038C54.2139 32.4038 51.8402 31.5756 50.2091 29.9193C48.578 28.2631 47.7622 25.9108 47.7617 22.8627C47.7617 21.3477 48.0107 19.9955 48.5087 18.8059C49.006 17.6168 49.6879 16.6126 50.5546 15.7932C51.4344 14.966 52.491 14.3304 53.652 13.9299C54.8502 13.5071 56.15 13.2957 57.5514 13.2958C58.2928 13.2902 59.0333 13.3476 59.7641 13.4675C60.3527 13.5651 60.9345 13.6975 61.506 13.8638C61.9327 13.9872 62.3488 14.1418 62.7507 14.3264C63.0824 14.485 63.3222 14.6082 63.4698 14.6961L62.2252 18.0265C61.5687 17.7021 60.878 17.4453 60.1647 17.2603C59.3809 17.0486 58.4914 16.9428 57.4962 16.9427C56.8322 16.9427 56.173 17.0501 55.5465 17.2603C54.9103 17.4717 54.3332 17.8198 53.8597 18.2777C53.3707 18.7444 52.9789 19.3478 52.6843 20.0878C52.389 20.8279 52.2415 21.7265 52.2418 22.7835C52.2356 23.5805 52.3331 24.375 52.5321 25.149C52.7258 25.8803 53.0392 26.5102 53.4723 27.0388C53.925 27.5823 54.5085 28.013 55.1732 28.2941C55.8737 28.6024 56.7218 28.7566 57.7173 28.7567C58.2817 28.7609 58.8456 28.7256 59.4046 28.6508C59.8514 28.5902 60.2944 28.5064 60.7316 28.3999C61.0813 28.3154 61.4236 28.2049 61.7553 28.0693C62.0497 27.9465 62.3171 27.832 62.5574 27.7257L63.7463 31.0294C63.1374 31.3821 62.28 31.6993 61.174 31.981C60.068 32.2627 58.7868 32.4036 57.3303 32.4038Z" fill="black"/>
<path d="M78.1278 25.0564C78.1278 26.1491 77.9617 27.149 77.6295 28.056C77.2977 28.9636 76.8184 29.7389 76.1915 30.3819C75.5604 31.0278 74.7918 31.5369 73.9374 31.875C73.0619 32.2273 72.0803 32.4035 70.9927 32.4037C69.9231 32.4037 68.9505 32.2275 68.075 31.875C67.2207 31.537 66.4521 31.0279 65.8212 30.3819C65.1745 29.7083 64.676 28.9173 64.3555 28.056C64.0051 27.1487 63.8299 26.1489 63.8301 25.0564C63.8302 23.9639 64.01 22.9684 64.3692 22.0698C64.7001 21.2153 65.2079 20.4332 65.8623 19.7705C66.5036 19.1333 67.2757 18.6294 68.1302 18.2906C69.0375 17.9322 70.0111 17.7523 70.9928 17.7618C72.0433 17.7618 73.0066 17.9381 73.8827 18.2906C74.7341 18.6276 75.502 19.1318 76.1364 19.7705C76.7821 20.4348 77.2807 21.2168 77.6021 22.0698C77.9523 22.9684 78.1275 23.9639 78.1278 25.0564ZM73.924 25.0564C73.924 23.8408 73.6705 22.8849 73.1637 22.1887C72.6569 21.4926 71.9332 21.1446 70.9927 21.1448C70.052 21.1448 69.3237 21.4928 68.8078 22.1888C68.292 22.8848 68.0338 23.8407 68.0332 25.0564C68.0332 26.2721 68.2914 27.2367 68.8078 27.9503C69.3237 28.6641 70.052 29.0209 70.9927 29.0208C71.9325 29.0208 72.6561 28.664 73.1635 27.9502C73.6708 27.2365 73.9243 26.2719 73.924 25.0564Z" fill="black"/>
<path d="M93.53 25.0564C93.53 26.1491 93.3641 27.149 93.0322 28.056C92.7 28.9636 92.2205 29.7389 91.5939 30.3819C90.9629 31.0277 90.1944 31.5368 89.3402 31.875C88.4647 32.2273 87.483 32.4035 86.3951 32.4037C85.3254 32.4037 84.3528 32.2275 83.4773 31.875C82.623 31.537 81.8545 31.0279 81.2236 30.3819C80.5768 29.7083 80.0784 28.9173 79.7579 28.056C79.4074 27.1487 79.2323 26.1489 79.2324 25.0564C79.2326 23.9639 79.4123 22.9684 79.7716 22.0698C80.1024 21.2152 80.6104 20.4331 81.2651 19.7705C81.9061 19.1332 82.6781 18.6294 83.5325 18.2906C84.4398 17.9322 85.4134 17.7523 86.3951 17.7618C87.4456 17.7618 88.4089 17.9381 89.285 18.2906C90.1366 18.6276 90.9045 19.1318 91.5392 19.7705C92.1845 20.4349 92.6829 21.217 93.0043 22.0698C93.3545 22.9684 93.5297 23.9639 93.53 25.0564ZM89.3267 25.0564C89.3267 23.8408 89.0731 22.8849 88.566 22.1887C88.0589 21.4926 87.3353 21.1446 86.3952 21.1447C85.4545 21.1447 84.7262 21.4927 84.2104 22.1887C83.6945 22.8847 83.4363 23.8406 83.4358 25.0564C83.4358 26.272 83.694 27.2366 84.2104 27.9502C84.7268 28.6638 85.4551 29.0207 86.3952 29.0208C87.3355 29.0208 88.0591 28.664 88.566 27.9502C89.0729 27.2365 89.3264 26.2719 89.3265 25.0564H89.3267Z" fill="black"/>
<path d="M108.16 31.5845C107.791 31.69 107.367 31.7914 106.888 31.8887C106.408 31.9853 105.906 32.069 105.381 32.1396C104.855 32.2103 104.321 32.2675 103.777 32.3113C103.233 32.3552 102.712 32.3772 102.214 32.3774C101.015 32.3774 99.9461 32.21 99.0063 31.8752C98.0665 31.5405 97.2737 31.0604 96.6277 30.4349C95.9685 29.7883 95.4636 29.013 95.148 28.1621C94.8071 27.2722 94.6367 26.2722 94.6367 25.1622C94.6367 24.035 94.7842 23.0175 95.0793 22.1099C95.3743 21.2022 95.7984 20.4314 96.3517 19.7973C96.8998 19.1665 97.596 18.6683 98.3836 18.3434C99.1857 18.0088 100.103 17.8414 101.135 17.8411C101.651 17.8353 102.167 17.8887 102.67 18.0001C103.139 18.1115 103.597 18.2618 104.039 18.4492V12.1588L108.16 11.5247L108.16 31.5845ZM98.84 24.9772C98.84 26.1928 99.1259 27.1706 99.6977 27.9106C100.269 28.6507 101.117 29.0208 102.242 29.0209C102.61 29.0209 102.952 29.0077 103.265 28.9813C103.578 28.9549 103.837 28.924 104.04 28.8885V21.7263C103.726 21.5458 103.385 21.4121 103.03 21.3299C102.619 21.2247 102.196 21.1715 101.771 21.1714C99.8171 21.1714 98.84 22.44 98.84 24.9772Z" fill="black"/>
<path d="M109.957 25.1886C109.957 23.9559 110.156 22.8767 110.552 21.9511C110.948 21.0255 111.469 20.2547 112.115 19.6388C112.747 19.0298 113.505 18.5528 114.341 18.238C115.163 17.9237 116.041 17.762 116.927 17.7617C118.991 17.7617 120.622 18.3652 121.821 19.5723C123.02 20.7792 123.619 22.5543 123.619 24.8976C123.619 25.1267 123.61 25.3777 123.591 25.6507C123.572 25.9242 123.554 26.166 123.536 26.3776H114.188C114.28 27.1882 114.677 27.8312 115.378 28.3067C116.078 28.7827 117.018 29.0206 118.199 29.0205C118.945 29.0212 119.691 28.9548 120.424 28.8223C121.153 28.6899 121.747 28.5269 122.208 28.3332L122.762 31.5311C122.476 31.6602 122.18 31.7664 121.876 31.8485C121.472 31.962 121.061 32.0546 120.646 32.126C120.194 32.2053 119.71 32.2714 119.194 32.3242C118.68 32.3769 118.163 32.4033 117.646 32.4035C116.336 32.4035 115.197 32.2185 114.23 31.8486C113.262 31.4786 112.46 30.9723 111.824 30.3294C111.182 29.6769 110.7 28.8959 110.414 28.0432C110.103 27.1211 109.949 26.1573 109.957 25.1886ZM119.637 23.6825C119.619 23.3506 119.558 23.0221 119.457 22.7042C119.36 22.3957 119.2 22.1084 118.986 21.8588C118.766 21.6055 118.493 21.3985 118.185 21.2506C117.862 21.092 117.461 21.0128 116.982 21.0128C116.52 21.0128 116.124 21.0877 115.793 21.2375C115.475 21.377 115.192 21.5796 114.963 21.832C114.738 22.0855 114.564 22.3768 114.451 22.691C114.332 23.0132 114.244 23.345 114.188 23.6823L119.637 23.6825Z" fill="black"/>
<path d="M129.592 29.206C130.348 29.206 130.882 29.1355 131.196 28.9944C131.509 28.8533 131.666 28.5802 131.666 28.175C131.666 27.858 131.463 27.5807 131.058 27.343C130.652 27.1048 130.034 26.836 129.205 26.5368C128.607 26.3273 128.021 26.0892 127.449 25.8233C126.955 25.5979 126.502 25.2991 126.107 24.9378C125.735 24.5896 125.443 24.171 125.25 23.7087C125.047 23.233 124.945 22.6604 124.946 21.9908C124.946 20.6871 125.453 19.6565 126.467 18.8988C127.481 18.1412 128.873 17.7623 130.642 17.762C131.496 17.7594 132.348 17.8347 133.187 17.9868C133.998 18.1367 134.643 18.2997 135.123 18.476L134.404 21.5416C133.891 21.3739 133.369 21.2327 132.841 21.1187C132.219 20.9893 131.583 20.9272 130.947 20.9335C129.656 20.9335 129.011 21.2771 129.011 21.9642C129.008 22.1091 129.036 22.253 129.094 22.3871C129.169 22.5323 129.283 22.6555 129.426 22.7437C129.64 22.8858 129.867 23.0102 130.103 23.1155C130.389 23.2488 130.753 23.3952 131.195 23.5547C132.098 23.8749 132.845 24.1904 133.436 24.5013C134.025 24.8119 134.491 25.1475 134.832 25.508C135.163 25.8513 135.409 26.2613 135.551 26.7078C135.698 27.2051 135.768 27.7202 135.759 28.2369C135.759 29.6083 135.22 30.6457 134.141 31.3491C133.062 32.0519 131.536 32.4034 129.564 32.4038C128.273 32.4038 127.199 32.298 126.342 32.0863C125.485 31.8746 124.89 31.6985 124.559 31.5579L125.25 28.3601C125.95 28.6242 126.671 28.8321 127.407 28.9814C128.125 29.1292 128.857 29.2045 129.592 29.206Z" fill="black"/>
<path d="M137.445 32.0336V12.1588L141.566 11.5247V18.1847C141.915 18.0793 142.271 17.9955 142.631 17.9337C143.045 17.8562 143.467 17.8164 143.889 17.8148C145.068 17.8148 146.05 17.969 146.834 18.2774C147.618 18.5859 148.245 19.0218 148.715 19.5854C149.198 20.1762 149.538 20.8623 149.71 21.5942C149.912 22.4438 150.01 23.3131 150.001 24.1844V32.0335H145.88V24.6601C145.88 23.3914 145.71 22.4927 145.369 21.9641C145.027 21.4358 144.395 21.1715 143.474 21.1714C143.126 21.1696 142.779 21.2005 142.437 21.2637C142.114 21.326 141.824 21.3922 141.566 21.4623V32.0336H137.445Z" fill="black"/>
<g clip-path="url(#clip1_2863_191)">
<path d="M16.8438 0.0285645V5.97376H16.8506C26.1072 5.97376 33.6111 13.1449 33.6111 21.9912C33.6111 30.8376 26.1072 38.0088 16.8506 38.0088L16.8438 38.0086V43.9009C29.5005 43.9009 39.7972 34.0604 39.7972 21.9648C39.7972 9.86917 29.5005 0.0285645 16.8438 0.0285645Z" fill="#1267FC"/>
<path d="M16.8798 38.0294V32.0481C11.0315 32.0481 6.29026 27.5172 6.29026 21.928C6.29026 16.3388 11.0314 11.8078 16.8798 11.8078V5.82642C7.57466 5.82642 0.03125 13.0351 0.03125 21.928C0.03125 30.8209 7.57472 38.0294 16.8798 38.0294Z" fill="#1267FC"/>
<path d="M27.4684 21.9222H33.7271C33.7253 13.0313 26.1828 5.82422 16.8789 5.82422V11.8058C22.7261 11.8058 27.4662 16.3347 27.4684 21.9222Z" fill="#6BA3FC"/>
</g>
</g>
<defs>
<clipPath id="clip0_2863_191">
<rect width="150" height="43.9286" fill="white"/>
</clipPath>
<clipPath id="clip1_2863_191">
<rect width="39.765" height="43.8724" fill="white" transform="translate(0.03125 0.0285645)"/>
</clipPath>
</defs>
</svg>
